<svg width="35" height="35" viewBox="0 0 35 35" fill="none" xmlns="http://www.w3.org/2000/svg">
<path d="M31.8966 1.32068H3.10635C2.12022 1.32068 1.3208 2.1201 1.3208 3.10623V31.8965C1.3208 32.8826 2.12022 33.682 3.10635 33.682H31.8966C32.8827 33.682 33.6821 32.8826 33.6821 31.8965V3.10623C33.6821 2.1201 32.8827 1.32068 31.8966 1.32068Z" fill="#3D5A98"/>
<path d="M23.6468 33.6793V21.1477H27.8522L28.4812 16.2641H23.6468V13.1469C23.6468 11.7332 24.0405 10.768 26.0667 10.768H28.6534V6.39297C27.4008 6.26242 26.1421 6.20035 24.8827 6.20703C21.1585 6.20703 18.5937 8.47656 18.5937 12.6629V16.2641H14.3882V21.1477H18.5937V33.6793H23.6468Z" fill="white"/>
</svg>
