<svg width="20" height="20" viewBox="0 0 20 20" fill="none" xmlns="http://www.w3.org/2000/svg">
<path d="M15.8749 4.09168C15.1109 3.31995 14.2009 2.70807 13.198 2.29172C12.195 1.87537 11.1192 1.66289 10.0333 1.66668C5.48325 1.66668 1.77492 5.37501 1.77492 9.92501C1.77492 11.3833 2.15825 12.8 2.87492 14.05L1.70825 18.3333L6.08325 17.1833C7.29158 17.8417 8.64992 18.1917 10.0333 18.1917C14.5833 18.1917 18.2916 14.4833 18.2916 9.93334C18.2916 7.72501 17.4333 5.65001 15.8749 4.09168ZM10.0333 16.7917C8.79992 16.7917 7.59159 16.4583 6.53325 15.8333L6.28325 15.6833L3.68325 16.3667L4.37492 13.8333L4.20825 13.575C3.52304 12.4808 3.1592 11.216 3.15825 9.92501C3.15825 6.14167 6.24158 3.05834 10.0249 3.05834C11.8583 3.05834 13.5833 3.77501 14.8749 5.07501C15.5145 5.71165 16.0213 6.46889 16.3661 7.30286C16.7108 8.13683 16.8866 9.03093 16.8833 9.93334C16.8999 13.7167 13.8166 16.7917 10.0333 16.7917ZM13.7999 11.6583C13.5916 11.5583 12.5749 11.0583 12.3916 10.9833C12.1999 10.9167 12.0666 10.8833 11.9249 11.0833C11.7833 11.2917 11.3916 11.7583 11.2749 11.8917C11.1583 12.0333 11.0333 12.05 10.8249 11.9417C10.6166 11.8417 9.94992 11.6167 9.16658 10.9167C8.54992 10.3667 8.14158 9.69168 8.01658 9.48334C7.89992 9.27501 7.99992 9.16668 8.10825 9.05834C8.19992 8.96667 8.31659 8.81667 8.41659 8.70001C8.51659 8.58334 8.55825 8.49167 8.62492 8.35834C8.69159 8.21667 8.65825 8.10001 8.60825 8.00001C8.55825 7.90001 8.14158 6.88334 7.97492 6.46668C7.80825 6.06668 7.63325 6.11668 7.50825 6.10834H7.10825C6.96658 6.10834 6.74992 6.15834 6.55825 6.36668C6.37492 6.57501 5.84159 7.07501 5.84159 8.09168C5.84159 9.10834 6.58325 10.0917 6.68325 10.225C6.78325 10.3667 8.14158 12.45 10.2083 13.3417C10.6999 13.5583 11.0833 13.6833 11.3833 13.775C11.8749 13.9333 12.3249 13.9083 12.6833 13.8583C13.0833 13.8 13.9083 13.3583 14.0749 12.875C14.2499 12.3917 14.2499 11.9833 14.1916 11.8917C14.1333 11.8 14.0083 11.7583 13.7999 11.6583Z" fill="black"/>
</svg>
