<svg width="16" height="16" viewBox="0 0 16 16" fill="none" xmlns="http://www.w3.org/2000/svg">
<path d="M1.43556 15.5973C1.02667 15.5973 0.685333 15.4257 0.411556 15.0826C0.137185 14.7387 0 14.3105 0 13.798V1.79926C0 1.28677 0.137185 0.858964 0.411556 0.515824C0.685333 0.171941 1.02667 0 1.43556 0H14.5644C14.9733 0 15.3147 0.171941 15.5884 0.515824C15.8628 0.858964 16 1.28677 16 1.79926V13.798C16 14.3105 15.8631 14.7383 15.5893 15.0814C15.315 15.4253 14.9733 15.5973 14.5644 15.5973H1.43556ZM8 7.92675L0.888889 2.10006V13.798C0.888889 13.9978 0.940148 14.1619 1.04267 14.2904C1.14519 14.4189 1.27615 14.4832 1.43556 14.4832H14.5644C14.7239 14.4832 14.8548 14.4189 14.9573 14.2904C15.0599 14.1619 15.1111 13.9978 15.1111 13.798V2.10006L8 7.92675ZM8 6.68454L14.8373 1.11409H1.16267L8 6.68454ZM0.888889 2.10006V1.11409V13.798C0.888889 13.9978 0.940148 14.1619 1.04267 14.2904C1.14519 14.4189 1.27615 14.4832 1.43556 14.4832H0.888889V2.10006Z" fill="black"/>
</svg>
