<svg width="16" height="16" viewBox="0 0 16 16" fill="none" xmlns="http://www.w3.org/2000/svg">
<path d="M14.93 15.5973C13.2447 15.5973 11.5167 15.1859 9.746 14.3631C7.97533 13.5397 6.33067 12.3846 4.812 10.8976C3.292 9.41002 2.11 7.80643 1.266 6.08683C0.422 4.36723 0 2.68598 0 1.04307C0 0.745419 0.1 0.497488 0.3 0.299273C0.5 0.0997577 0.75 0 1.05 0H3.523C3.795 0 4.03233 0.0835103 4.235 0.250531C4.43767 0.417552 4.57467 0.631364 4.646 0.891969L5.142 3.21694C5.18867 3.48989 5.18033 3.72807 5.117 3.93149C5.05433 4.1349 4.94367 4.3016 4.785 4.43157L2.59 6.42607C3.00067 7.15265 3.45433 7.82723 3.951 8.44982C4.44767 9.07306 4.97767 9.66348 5.541 10.2211C6.121 10.7865 6.74567 11.3129 7.415 11.8003C8.08433 12.2871 8.819 12.7465 9.619 13.1787L11.758 11.0565C11.9207 10.8856 12.1037 10.7728 12.307 10.7182C12.5103 10.6643 12.735 10.6536 12.981 10.6861L15.085 11.1053C15.3563 11.1702 15.5767 11.3035 15.746 11.5049C15.9153 11.707 16 11.9387 16 12.2V14.5737C16 14.8661 15.898 15.1099 15.694 15.3048C15.4907 15.4998 15.2353 15.5973 14.93 15.5973ZM2.12 5.51168L4.04 3.79014C4.104 3.74074 4.14533 3.67218 4.164 3.58445C4.184 3.49671 4.18067 3.41548 4.154 3.34074L3.711 1.2741C3.685 1.17467 3.64 1.09993 3.576 1.04989C3.512 0.99985 3.429 0.974829 3.327 0.974829H1.275C1.19833 0.974829 1.13433 0.99985 1.083 1.04989C1.03167 1.09993 1.006 1.16232 1.006 1.23706C1.02533 1.90319 1.132 2.59857 1.326 3.32319C1.52133 4.04847 1.78533 4.77796 2.12 5.51168ZM10.571 13.6359C11.247 13.9622 11.967 14.2036 12.731 14.3602C13.4963 14.5162 14.163 14.5997 14.731 14.6107C14.8077 14.6107 14.8717 14.586 14.923 14.5367C14.9743 14.4866 15 14.4239 15 14.3485V12.392C15 12.2919 14.9743 12.2107 14.923 12.1483C14.8717 12.0853 14.795 12.0414 14.693 12.0167L12.843 11.6473C12.7657 11.6226 12.698 11.6193 12.64 11.6375C12.5827 11.657 12.522 11.6976 12.458 11.7594L10.571 13.6359Z" fill="black"/>
</svg>
